<svg width="26" height="26" viewBox="0 0 26 26" fill="none" xmlns="http://www.w3.org/2000/svg">
<circle cx="13" cy="13" r="13" fill="#D9D9D9" fill-opacity="0.3"/>
<path d="M17.837 10.2714L13.7407 6.16343C13.6367 6.05891 13.4954 6.00013 13.3481 6H10.037C9.49678 6 8.97865 6.21523 8.59663 6.59834C8.21462 6.98145 8 7.50106 8 8.04286V16.9571C8 17.4989 8.21462 18.0186 8.59663 18.4017C8.97865 18.7848 9.49678 19 10.037 19H15.963C16.5032 19 17.0213 18.7848 17.4034 18.4017C17.7854 18.0186 18 17.4989 18 16.9571V10.6429C17.9942 10.5029 17.936 10.3703 17.837 10.2714ZM13.9259 7.90171L16.1037 10.0857H13.9259V7.90171ZM15.963 17.8857H10.037C9.79147 17.8857 9.55595 17.7879 9.38231 17.6137C9.20866 17.4396 9.11111 17.2034 9.11111 16.9571V8.04286C9.11111 7.79658 9.20866 7.5604 9.38231 7.38626C9.55595 7.21212 9.79147 7.11429 10.037 7.11429H12.8148V10.6429C12.8167 10.79 12.8759 10.9306 12.9797 11.0347C13.0834 11.1388 13.2236 11.1981 13.3704 11.2H16.8889V16.9571C16.8889 17.2034 16.7913 17.4396 16.6177 17.6137C16.444 17.7879 16.2085 17.8857 15.963 17.8857Z" fill="black"/>
<path d="M14.7551 12.1398C14.642 12.0478 14.4998 12.0059 14.3583 12.0229C14.2168 12.04 14.087 12.1147 13.996 12.2314L12.9862 13.5813L11.9764 12.2085C11.9294 12.1494 11.8719 12.1007 11.8072 12.0653C11.7425 12.0299 11.6719 12.0084 11.5994 12.002C11.527 11.9956 11.454 12.0045 11.3847 12.0282C11.3155 12.0518 11.2513 12.0898 11.1958 12.1398C11.1403 12.1899 11.0946 12.2512 11.0613 12.32C11.0281 12.3889 11.0079 12.4641 11.0019 12.5413C10.9959 12.6185 11.0042 12.6962 11.0265 12.7699C11.0487 12.8437 11.0843 12.9121 11.1313 12.9712L12.27 14.4965L11.1313 16.0218C11.0421 16.1412 11.001 16.2934 11.0171 16.445C11.0332 16.5966 11.1052 16.7352 11.2173 16.8303C11.3293 16.9253 11.4723 16.9691 11.6146 16.9519C11.757 16.9348 11.8871 16.8581 11.9764 16.7387L12.9862 15.4117L13.996 16.7845C14.0474 16.8509 14.1119 16.9044 14.185 16.9413C14.258 16.9782 14.3377 16.9976 14.4185 16.998C14.5284 17.0077 14.6383 16.9812 14.7335 16.9221C14.8287 16.8629 14.9045 16.774 14.9507 16.6674C14.9968 16.5609 15.011 16.4417 14.9914 16.3262C14.9718 16.2107 14.9193 16.1045 14.8411 16.0218L13.7024 14.4965L14.8697 12.9712C14.9143 12.9089 14.9467 12.8378 14.9651 12.762C14.9835 12.6862 14.9875 12.6073 14.9768 12.5298C14.9661 12.4524 14.941 12.378 14.9029 12.311C14.8649 12.244 14.8146 12.1858 14.7551 12.1398Z" fill="black"/>
</svg>
