<svg width="29" height="28" viewBox="0 0 29 28" fill="none" xmlns="http://www.w3.org/2000/svg">
<path fill-rule="evenodd" clip-rule="evenodd" d="M27.6844 28H0.478244C0.214092 28 0 27.7859 0 27.5218V25.4884C0 25.2243 0.214092 25.0101 0.478244 25.0101L27.6844 25.0102C27.9486 25.0102 28.1627 25.2243 28.1627 25.4884V27.5218C28.1627 27.7858 27.9486 28 27.6844 28ZM23.8677 8.58998C21.4994 8.58998 19.5727 6.66329 19.5727 4.29499C19.5727 1.92678 21.4994 0 23.8677 0C26.2359 0 28.1627 1.92672 28.1627 4.29499C28.1627 6.66329 26.2359 8.58998 23.8677 8.58998ZM25.0531 4.29499L25.0531 4.28876L25.0528 4.28258L25.0524 4.27646L25.0519 4.27037L25.0512 4.26432L25.0504 4.25831L25.0493 4.25238V4.25236L25.0483 4.24647L25.047 4.24062L25.0456 4.23482L25.044 4.2291L25.0423 4.22341L25.0405 4.2178L25.0385 4.21224L25.0364 4.20674L25.0342 4.20129L25.0319 4.19595L25.0294 4.19065L25.0268 4.18541L25.0241 4.18026L25.0212 4.17518L25.0183 4.17019L25.0152 4.16527L25.012 4.16041L25.0088 4.15566L25.0053 4.15099L25.0018 4.1464L24.9982 4.14191L24.9945 4.1375V4.13748L24.9906 4.13318L24.9867 4.12897V4.12893L24.9827 4.12482V4.1248L24.9785 4.1208L24.9743 4.11685L24.97 4.11304L24.9656 4.1093V4.10928L24.9611 4.10568L24.9565 4.10215V4.10212L24.9518 4.09873L24.9471 4.09543L24.9422 4.09224L24.9373 4.08918L24.9323 4.08623L24.9272 4.08338L24.9221 4.0807V4.08068L24.9169 4.07808L24.9116 4.07564V4.07561L24.9062 4.07327L24.9007 4.07107L24.8953 4.06897L24.8897 4.06701L24.8841 4.06518L24.8784 4.06349L24.8727 4.06196L24.8669 4.06054L24.861 4.05925L24.8551 4.05812L24.8491 4.05715L24.8432 4.05629L24.8371 4.05562L24.831 4.05508L24.8248 4.05469L24.8187 4.05445L24.8125 4.0544H23.1635V2.64602L24.8125 2.64606C24.9455 2.64606 25.0531 2.53842 25.0531 2.40542C25.0531 2.27242 24.9454 2.16478 24.8125 2.16478H24.1083V1.81814C24.1083 1.68513 24.0007 1.57749 23.8677 1.57749C23.7347 1.57749 23.627 1.68513 23.627 1.81814V2.16476H22.9229C22.7899 2.16476 22.6823 2.27241 22.6823 2.40539V4.29493C22.6823 4.42793 22.7899 4.53559 22.9229 4.53559H24.5718V5.94391L23.8691 5.94389L23.8677 5.94387L23.8663 5.94389L22.9229 5.94387C22.7899 5.94387 22.6823 6.05151 22.6823 6.18451C22.6823 6.31751 22.7899 6.42516 22.9229 6.42516H23.627V6.77182C23.627 6.90482 23.7347 7.01247 23.8677 7.01247C24.0007 7.01247 24.1083 6.9048 24.1083 6.77182V6.42516H24.8125C24.9454 6.42516 25.0531 6.31751 25.0531 6.18453L25.0531 4.29499ZM10.8904 4.70463V2.90622C10.8904 1.3872 12.1262 0.151386 13.6453 0.151386L14.5174 0.151408C16.0364 0.151408 17.2723 1.3872 17.2723 2.90624V4.70468H17.6825C17.9466 4.70468 18.1608 4.91874 18.1608 5.18292V9.96811C18.1607 10.2323 17.9466 10.4463 17.6825 10.4463H10.4802C10.2161 10.4463 10.002 10.2323 10.002 9.96811V5.18288C10.002 4.91874 10.2161 4.70462 10.4802 4.70462L10.8904 4.70463ZM16.3158 4.70468V2.90622C16.3158 1.91456 15.509 1.10785 14.5174 1.10785L13.6453 1.10787C12.6536 1.10787 11.8469 1.91463 11.8469 2.90624V4.70463L16.3158 4.70468ZM14.0814 8.3575C14.2143 8.3575 14.322 8.24982 14.322 8.11685V7.03406C14.322 6.90112 14.2143 6.79344 14.0814 6.79344C13.9484 6.79344 13.8407 6.90108 13.8407 7.03406V8.11685C13.8407 8.24985 13.9484 8.3575 14.0814 8.3575ZM4.295 8.58995C1.92676 8.58995 1.1789e-05 6.66327 1.1789e-05 4.29497C1.1789e-05 1.92676 1.92677 1.1789e-05 4.295 1.1789e-05C6.66323 1.1789e-05 8.58995 1.9267 8.58995 4.29497C8.58995 6.66325 6.66317 8.58995 4.295 8.58995ZM5.4804 4.29497L5.48033 4.28874L5.48011 4.28256L5.47971 4.27643L5.47918 4.27033L5.47847 4.26429L5.47764 4.2583L5.47666 4.25234L5.47555 4.24643L5.47427 4.2406L5.47287 4.23479L5.47131 4.22904L5.46962 4.22337V4.22335L5.46779 4.21774L5.46584 4.21218L5.46374 4.20671V4.20668L5.46153 4.20125L5.45917 4.19588L5.45669 4.19062V4.1906L5.45411 4.18536L5.4514 4.18022L5.44855 4.17514L5.44559 4.17016V4.17012L5.44252 4.1652L5.43933 4.16037L5.43605 4.15562L5.43264 4.15092L5.42909 4.14635L5.42547 4.14184L5.42177 4.13743L5.41793 4.13314V4.13312L5.41401 4.1289L5.40995 4.12476L5.40584 4.12074L5.4016 4.11682V4.1168L5.39728 4.11299L5.39291 4.10926L5.3884 4.10563L5.38381 4.10211L5.37913 4.0987L5.37436 4.09543V4.09539L5.3695 4.09222L5.36458 4.08913L5.35958 4.0862L5.35451 4.08336L5.34935 4.08065V4.08061L5.34414 4.07803L5.33883 4.07556L5.33348 4.07322L5.32805 4.07099L5.32256 4.0689L5.31699 4.06693L5.31138 4.0651L5.30568 4.06345L5.29993 4.06189L5.29414 4.06047L5.28828 4.05921L5.28239 4.05807L5.27643 4.05708L5.27044 4.05625L5.26439 4.05555L5.25827 4.05501L5.25216 4.05464L5.24598 4.0544L5.23977 4.05432H3.59083V2.64602L5.23977 2.64604C5.37277 2.64604 5.48039 2.53839 5.48039 2.40539C5.48039 2.27241 5.37275 2.16476 5.23977 2.16476H4.53561V1.8181C4.53561 1.6851 4.42799 1.57748 4.29499 1.57748C4.16199 1.57748 4.05434 1.68512 4.05434 1.8181V2.16473H3.3502C3.2172 2.16473 3.10958 2.27237 3.10958 2.40535V4.29492C3.10958 4.4279 3.2172 4.53558 3.3502 4.53558H4.99913V5.94388L4.29642 5.94386H4.295H4.29357H3.3502C3.2172 5.94386 3.10958 6.0515 3.10958 6.1845C3.10958 6.31748 3.2172 6.42512 3.3502 6.42512H4.05434V6.77181C4.05434 6.90478 4.16199 7.01246 4.29499 7.01246C4.42796 7.01246 4.53561 6.90476 4.53561 6.77181V6.42512H5.23977C5.37274 6.42512 5.48039 6.3175 5.48039 6.1845L5.4804 4.29497ZM20.4849 24.5349V9.82699H25.3933C25.6575 9.82699 25.8715 10.0411 25.8715 10.3052V11.4728L23.672 11.4728C23.539 11.4728 23.4314 11.5804 23.4314 11.7134V15.9854C23.4314 16.1184 23.539 16.2261 23.672 16.2261H25.8715V18.1359H23.672C23.539 18.1359 23.4314 18.2435 23.4314 18.3765V22.6485C23.4314 22.7815 23.539 22.8892 23.672 22.8892H25.8715V24.5349H20.4849ZM25.8715 18.6172H23.9126V22.4079H25.8715V18.6172ZM25.8715 11.954H23.9126V15.7448H25.8715V11.954ZM2.29117 24.5349V22.8892H4.49082C4.6238 22.8892 4.73144 22.7815 4.73144 22.6485V18.3765C4.73144 18.2436 4.62382 18.1359 4.49082 18.1359H2.29117V16.2261H4.49082C4.6238 16.2261 4.73144 16.1184 4.73144 15.9854V11.7134C4.73144 11.5804 4.62382 11.4728 4.49082 11.4728L2.29117 11.4728V10.3052C2.29117 10.0411 2.50528 9.82699 2.76943 9.82699H7.6779L7.67785 24.5349H2.29117ZM2.29117 22.4079H4.25017V18.6172H2.29117V22.4079ZM2.29117 15.7448H4.25017V11.954H2.29117V15.7448ZM8.15311 24.5349H11.3454V18.0896C11.3454 17.9566 11.4531 17.8489 11.5861 17.8489L16.5767 17.849C16.7097 17.849 16.8173 17.9566 16.8173 18.0896V24.5349H20.0097V7.69151C20.0097 7.42736 19.7956 7.21328 19.5315 7.21328L18.636 7.21325V9.9681C18.636 10.4945 18.209 10.9216 17.6825 10.9216H10.4802C9.95377 10.9216 9.52674 10.4945 9.52674 9.9681V7.21325H8.63137C8.36719 7.21325 8.15314 7.42736 8.15314 7.6915L8.15311 24.5349ZM17.7984 16.4751H10.3644C10.2314 16.4751 10.1237 16.3675 10.1237 16.2345V14.1104C10.1237 13.9774 10.2314 13.8698 10.3644 13.8698L17.7984 13.8698C17.9314 13.8698 18.039 13.9774 18.039 14.1104V16.2345C18.039 16.3675 17.9313 16.4751 17.7984 16.4751ZM10.605 15.9939V14.351H17.5578V15.9939H10.605ZM16.3361 24.5349H11.8267V18.3302H16.3361V24.5349Z" fill="white"/>
</svg>
