<svg width="22" height="28" viewBox="0 0 22 28" fill="none" xmlns="http://www.w3.org/2000/svg">
<path fill-rule="evenodd" clip-rule="evenodd" d="M4.12994 0.0108126H20.6022V12.9859H11.2155C10.7803 12.9853 10.3625 13.1574 10.0541 13.4646C9.74569 13.7717 9.57178 14.1887 9.57057 14.624V20.5157H3.89983C2.36424 20.6547 2.90876 22.7029 3.89983 22.5958H9.57057V23.8512H3.9659C1.66024 23.8831 0.897 23.76 0.897 22.0718V20.2081C0.646643 20.1632 0.420062 20.0316 0.256873 19.8365C0.0936846 19.6414 0.00427363 19.3951 0.00427363 19.1407C0.00427363 18.8864 0.0936846 18.6401 0.256873 18.445C0.420062 18.2499 0.646643 18.1183 0.897 18.0734V16.3623C0.646643 16.3174 0.420062 16.1858 0.256873 15.9907C0.0936846 15.7956 0.00427363 15.5493 0.00427363 15.2949C0.00427363 15.0406 0.0936846 14.7943 0.256873 14.5992C0.420062 14.4041 0.646643 14.2725 0.897 14.2275V12.5165C0.646643 12.4715 0.420062 12.34 0.256873 12.1449C0.0936846 11.9498 0.00427363 11.7035 0.00427363 11.4491C0.00427363 11.1948 0.0936846 10.9485 0.256873 10.7534C0.420062 10.5583 0.646643 10.4267 0.897 10.3817V8.67072C0.639868 8.63984 0.404158 8.51217 0.237823 8.31366C0.0714889 8.11516 -0.0129738 7.86075 0.00161935 7.60218C-0.011878 7.34387 0.0729803 7.09004 0.239112 6.89178C0.405244 6.69352 0.640313 6.56556 0.897 6.53365V4.82491C0.640091 4.79351 0.404703 4.66569 0.23847 4.46731C0.0722374 4.26894 -0.0124238 4.01481 0.00161935 3.75637C-0.0124238 3.49794 0.0722374 3.24381 0.23847 3.04543C0.404703 2.84705 0.640091 2.71923 0.897 2.68784C0.899278 0.455085 1.02686 -0.0871552 4.12994 0.0108126ZM12.1246 14.7197H20.846C21.0468 14.7209 21.2391 14.8012 21.3811 14.9432C21.5232 15.0852 21.6035 15.2775 21.6047 15.4783V27.2368C21.6039 27.3366 21.5834 27.4354 21.5443 27.5273C21.5052 27.6191 21.4483 27.7024 21.3768 27.7722C21.3074 27.844 21.2242 27.9012 21.1322 27.9403C21.0403 27.9795 20.9414 27.9998 20.8414 28H12.1246C11.9237 27.9988 11.7314 27.9185 11.5894 27.7765C11.4474 27.6344 11.3671 27.4422 11.3659 27.2413V15.4783C11.3671 15.2775 11.4474 15.0852 11.5894 14.9432C11.7314 14.8012 11.9237 14.7209 12.1246 14.7197ZM19.8959 16.5924H13.0769V18.6566H19.8959V16.5924ZM18.6087 22.7644H19.823C19.8732 22.7644 19.9213 22.7843 19.9567 22.8198C19.9922 22.8553 20.0121 22.9034 20.0121 22.9535V23.981C20.0121 24.0312 19.9922 24.0793 19.9567 24.1148C19.9213 24.1502 19.8732 24.1701 19.823 24.1701H18.6087C18.5583 24.1701 18.51 24.1503 18.4741 24.1149C18.4383 24.0795 18.4179 24.0314 18.4173 23.981V22.9535C18.4179 22.9032 18.4383 22.8551 18.4741 22.8197C18.51 22.7843 18.5583 22.7644 18.6087 22.7644ZM18.6087 20.3266H19.823C19.8734 20.3272 19.9215 20.3476 19.9569 20.3835C19.9923 20.4193 20.0121 20.4676 20.0121 20.518V21.5432C20.0121 21.5934 19.9922 21.6415 19.9567 21.6769C19.9213 21.7124 19.8732 21.7323 19.823 21.7323H18.6087C18.5583 21.7323 18.51 21.7125 18.4741 21.6771C18.4383 21.6417 18.4179 21.5936 18.4173 21.5432V20.518C18.4179 20.4674 18.4382 20.4191 18.474 20.3833C18.5098 20.3476 18.5581 20.3272 18.6087 20.3266ZM18.6087 25.2022H19.823C19.8732 25.2022 19.9213 25.2221 19.9567 25.2576C19.9922 25.2931 20.0121 25.3412 20.0121 25.3913V26.428C20.0121 26.4783 19.9923 26.5267 19.9569 26.5625C19.9215 26.5983 19.8734 26.6187 19.823 26.6193H18.6087C18.5579 26.6193 18.5092 26.5992 18.4733 26.5633C18.4375 26.5274 18.4173 26.4787 18.4173 26.428V25.4027C18.4185 25.3525 18.4391 25.3048 18.4748 25.2695C18.5105 25.2342 18.5585 25.2142 18.6087 25.2136V25.2022ZM15.8747 22.7644H17.089C17.1394 22.7644 17.1877 22.7843 17.2236 22.8197C17.2594 22.8551 17.2798 22.9032 17.2804 22.9535V23.981C17.2798 24.0314 17.2594 24.0795 17.2236 24.1149C17.1877 24.1503 17.1394 24.1701 17.089 24.1701H15.8656C15.8152 24.1701 15.7669 24.1503 15.731 24.1149C15.6952 24.0795 15.6748 24.0314 15.6742 23.981V22.9535C15.6748 22.9032 15.6952 22.8551 15.731 22.8197C15.7669 22.7843 15.8152 22.7644 15.8656 22.7644H15.8747ZM15.8747 20.3266H17.089C17.1396 20.3272 17.1879 20.3476 17.2237 20.3833C17.2595 20.4191 17.2798 20.4674 17.2804 20.518V21.5432C17.2798 21.5936 17.2594 21.6417 17.2236 21.6771C17.1877 21.7125 17.1394 21.7323 17.089 21.7323H15.8656C15.8152 21.7323 15.7669 21.7125 15.731 21.6771C15.6952 21.6417 15.6748 21.5936 15.6742 21.5432V20.518C15.6748 20.4674 15.6951 20.4191 15.7309 20.3833C15.7667 20.3476 15.815 20.3272 15.8656 20.3266H15.8747ZM15.8747 25.2022H17.089C17.1394 25.2022 17.1877 25.2221 17.2236 25.2575C17.2594 25.2929 17.2798 25.341 17.2804 25.3913V26.428C17.2798 26.4785 17.2595 26.5269 17.2237 26.5626C17.1879 26.5984 17.1396 26.6187 17.089 26.6193H15.8656C15.8148 26.6193 15.7661 26.5992 15.7303 26.5633C15.6944 26.5274 15.6742 26.4787 15.6742 26.428V25.4027C15.6754 25.3525 15.696 25.3048 15.7317 25.2695C15.7674 25.2342 15.8154 25.2142 15.8656 25.2136L15.8747 25.2022ZM13.1726 20.3266H14.3869C14.4377 20.3266 14.4864 20.3468 14.5223 20.3827C14.5582 20.4186 14.5783 20.4672 14.5783 20.518V21.5432C14.5777 21.5936 14.5573 21.6417 14.5215 21.6771C14.4856 21.7125 14.4373 21.7323 14.3869 21.7323H13.1726C13.1224 21.7323 13.0743 21.7124 13.0389 21.6769C13.0034 21.6415 12.9835 21.5934 12.9835 21.5432V20.518C12.9835 20.4676 13.0033 20.4193 13.0387 20.3835C13.0741 20.3476 13.1222 20.3272 13.1726 20.3266ZM13.1726 25.2022H14.3869C14.4373 25.2022 14.4856 25.2221 14.5215 25.2575C14.5573 25.2929 14.5777 25.341 14.5783 25.3913V26.428C14.5783 26.4787 14.5582 26.5274 14.5223 26.5633C14.4864 26.5992 14.4377 26.6193 14.3869 26.6193H13.1726C13.123 26.6176 13.0761 26.5966 13.0417 26.5609C13.0072 26.5252 12.988 26.4776 12.9881 26.428V25.4027C12.9886 25.3527 13.0088 25.305 13.0441 25.2697C13.0794 25.2343 13.1272 25.2142 13.1772 25.2136L13.1726 25.2022ZM13.1726 22.7644H14.3869C14.4373 22.7644 14.4856 22.7843 14.5215 22.8197C14.5573 22.8551 14.5777 22.9032 14.5783 22.9535V23.981C14.5777 24.0314 14.5573 24.0795 14.5215 24.1149C14.4856 24.1503 14.4373 24.1701 14.3869 24.1701H13.1726C13.1224 24.1701 13.0743 24.1502 13.0389 24.1148C13.0034 24.0793 12.9835 24.0312 12.9835 23.981V22.9535C12.9835 22.9034 13.0034 22.8553 13.0389 22.8198C13.0743 22.7843 13.1224 22.7644 13.1726 22.7644ZM20.846 15.2254H12.1246C12.0579 15.226 11.9942 15.253 11.9472 15.3003C11.9003 15.3477 11.874 15.4117 11.874 15.4783V27.2368C11.874 27.3034 11.9003 27.3674 11.9472 27.4148C11.9942 27.4621 12.0579 27.4891 12.1246 27.4897H20.846C20.9127 27.4885 20.9763 27.4615 21.0235 27.4143C21.0707 27.3671 21.0977 27.3035 21.0989 27.2368V15.4783C21.0977 15.4116 21.0707 15.348 21.0235 15.3008C20.9763 15.2536 20.9127 15.2266 20.846 15.2254ZM10.9968 4.84541C10.8812 4.82949 10.7761 4.7698 10.7032 4.67866C10.6302 4.58752 10.5951 4.47187 10.6049 4.35557C10.5969 4.2404 10.6329 4.12647 10.7056 4.03681C10.7784 3.94716 10.8824 3.88845 10.9968 3.87257H17.8933C18.0089 3.88849 18.114 3.94818 18.1869 4.03932C18.2598 4.13046 18.295 4.24611 18.2852 4.36241C18.295 4.47871 18.2598 4.59435 18.1869 4.6855C18.114 4.77664 18.0089 4.83632 17.8933 4.85225L10.9968 4.84541ZM10.9968 9.80988C10.8849 9.78561 10.7847 9.72378 10.7129 9.63466C10.641 9.54554 10.6018 9.43451 10.6018 9.32004C10.6018 9.20556 10.641 9.09453 10.7129 9.00541C10.7847 8.9163 10.8849 8.85447 10.9968 8.8302H15.5307C15.6425 8.85447 15.7427 8.9163 15.8146 9.00541C15.8865 9.09453 15.9256 9.20556 15.9256 9.32004C15.9256 9.43451 15.8865 9.54554 15.8146 9.63466C15.7427 9.72378 15.6425 9.78561 15.5307 9.80988H10.9968ZM10.9968 7.32651C10.8807 7.31057 10.7753 7.25056 10.7023 7.15892C10.6293 7.06728 10.5945 6.95106 10.6049 6.83439C10.5957 6.71846 10.6311 6.60339 10.704 6.51274C10.7768 6.4221 10.8816 6.36274 10.9968 6.34683H16.4762C16.5901 6.36431 16.6932 6.42434 16.7647 6.51482C16.8361 6.60529 16.8706 6.71949 16.8612 6.83439C16.871 6.95069 16.8359 7.06633 16.763 7.15747C16.6901 7.24862 16.585 7.3083 16.4693 7.32423L10.9968 7.32651ZM6.15309 9.86683C5.95943 9.85544 5.92526 9.83949 5.74071 9.81443C5.55617 9.78937 5.41719 9.76887 5.26454 9.74153C5.1119 9.71419 4.96608 9.68001 4.82483 9.64356V8.3882C5.00937 8.40415 5.20986 8.41782 5.42403 8.42694C5.63819 8.43605 5.85463 8.44744 6.07563 8.452C6.29662 8.45655 6.50167 8.452 6.69077 8.452C6.84372 8.45537 6.99655 8.44161 7.14644 8.41099C7.24648 8.39383 7.33965 8.34882 7.41528 8.28112C7.44614 8.24828 7.47011 8.20958 7.48576 8.16732C7.50141 8.12506 7.50844 8.08009 7.50641 8.03506V7.9371C7.50941 7.88518 7.4993 7.83334 7.47701 7.78636C7.45471 7.73937 7.42094 7.69876 7.37883 7.66825C7.29123 7.60784 7.18674 7.57674 7.08037 7.5794H6.64748C6.01563 7.5794 5.53718 7.44042 5.21214 7.16247C4.8871 6.88451 4.72382 6.41973 4.7223 5.76813V5.5084C4.70383 5.25889 4.74267 5.00845 4.83587 4.77625C4.92906 4.54406 5.07413 4.33626 5.25999 4.16875C5.50145 3.93203 5.81656 3.78492 6.15309 3.75182V3.23236H7.37427V3.73359C7.82188 3.76614 8.26523 3.84245 8.69797 3.96142V5.21678C8.44736 5.19627 8.16712 5.17805 7.85272 5.16438C7.53831 5.15071 7.2558 5.14387 7.00062 5.14387C6.86392 5.14256 6.72739 5.154 6.5928 5.17805C6.48944 5.19092 6.39288 5.23641 6.31713 5.30791C6.28216 5.34614 6.25543 5.39115 6.23857 5.44013C6.22172 5.48912 6.21511 5.54105 6.21916 5.5927V5.67472C6.21547 5.73288 6.22527 5.79111 6.2478 5.84486C6.27032 5.89861 6.30497 5.94642 6.34902 5.98457C6.4663 6.06348 6.60681 6.10042 6.74773 6.08938H7.29225C7.62265 6.0813 7.9494 6.15984 8.24003 6.31721C8.48484 6.45195 8.68393 6.6566 8.81189 6.90502C8.94287 7.16641 9.00854 7.45566 9.00327 7.74799V8.01684C9.02944 8.42866 8.93609 8.83927 8.73443 9.19929C8.55503 9.46451 8.28543 9.65558 7.97575 9.73697C7.78578 9.80618 7.58725 9.84911 7.38566 9.86456V10.4455H6.15309V9.86683Z" fill="white"/>
</svg>
