<svg width="32" height="28" viewBox="0 0 32 28" fill="none" xmlns="http://www.w3.org/2000/svg">
<path d="M2 0C3.10625 0 4 0.89375 4 2V23C4 23.55 4.45 24 5 24H30C31.1063 24 32 24.8937 32 26C32 27.1063 31.1063 28 30 28H5C2.2375 28 0 25.7625 0 23V2C0 0.89375 0.89375 0 2 0ZM10 12C11.1062 12 12 12.8938 12 14V18C12 19.1063 11.1062 20 10 20C8.89375 20 8 19.1063 8 18V14C8 12.8938 8.89375 12 10 12ZM18 8V18C18 19.1063 17.1063 20 16 20C14.8938 20 14 19.1063 14 18V8C14 6.89375 14.8938 6 16 6C17.1063 6 18 6.89375 18 8ZM22 10C23.1063 10 24 10.8938 24 12V18C24 19.1063 23.1063 20 22 20C20.8937 20 20 19.1063 20 18V12C20 10.8938 20.8937 10 22 10ZM30 4V18C30 19.1063 29.1063 20 28 20C26.8937 20 26 19.1063 26 18V4C26 2.89375 26.8937 2 28 2C29.1063 2 30 2.89375 30 4Z" fill="white"/>
</svg>
