<svg width="32" height="28" viewBox="0 0 32 28" fill="none" xmlns="http://www.w3.org/2000/svg">
<path d="M31.4891 13.9727C31.4891 14.957 30.6687 15.7281 29.7391 15.7281H27.9891L28.0273 24.4891C28.0273 24.6367 28.0164 24.7844 28 24.932V25.8125C28 27.0211 27.0211 28 25.8125 28H24.9375C24.8773 28 24.8172 28 24.757 27.9945C24.6805 28 24.6039 28 24.5273 28H22.75H21.4375C20.2289 28 19.25 27.0211 19.25 25.8125V24.5V21C19.25 20.032 18.468 19.25 17.5 19.25H14C13.032 19.25 12.25 20.032 12.25 21V24.5V25.8125C12.25 27.0211 11.2711 28 10.0625 28H8.75H7.00547C6.92344 28 6.84141 27.9945 6.75938 27.9891C6.69375 27.9945 6.62813 28 6.5625 28H5.6875C4.47891 28 3.5 27.0211 3.5 25.8125V19.6875C3.5 19.6383 3.5 19.5836 3.50547 19.5344V15.7281H1.75C0.765625 15.7281 0 14.9625 0 13.9727C0 13.4805 0.164062 13.043 0.546875 12.6602L14.5687 0.4375C14.9516 0.0546875 15.3891 0 15.7719 0C16.1547 0 16.5922 0.109375 16.9203 0.382812L30.8875 12.6602C31.325 13.043 31.5437 13.4805 31.4891 13.9727Z" fill="white"/>
</svg>
