<svg width="32" height="28" viewBox="0 0 32 28" fill="none" xmlns="http://www.w3.org/2000/svg">
<path d="M0 1.75C0 0.782031 0.782031 0 1.75 0H5.73672C7.24062 0 8.58047 0.9625 9.05625 2.39531L14.093 17.5C15.7391 17.5273 17.1992 18.3148 18.1398 19.5234L29.1922 15.8375C30.1109 15.5312 31.1008 16.0289 31.407 16.9422C31.7133 17.8555 31.2156 18.8508 30.3023 19.157L19.25 22.843C19.2008 25.6977 16.8711 28 14 28C11.1016 28 8.75 25.6484 8.75 22.75C8.75 21.0656 9.54297 19.5672 10.7734 18.6047L5.73672 3.5H1.75C0.782031 3.5 0 2.71797 0 1.75ZM13.3875 7.35547C13.0867 6.43672 13.5898 5.44687 14.5086 5.15156L17.0078 4.34219L18.0906 7.67266L21.4211 6.58984L20.3328 3.25937L22.832 2.45C23.7508 2.14922 24.7406 2.65234 25.0359 3.57109L27.7375 11.8945C28.0383 12.8133 27.5352 13.8031 26.6164 14.0984L18.293 16.8C17.3742 17.1008 16.3844 16.5977 16.0891 15.6789L13.3875 7.35547Z" fill="white"/>
</svg>
