<svg width="35" height="28" viewBox="0 0 35 28" fill="none" xmlns="http://www.w3.org/2000/svg">
<path d="M7.83462 0C8.98899 0 10.0961 0.460936 10.9123 1.28141C11.7286 2.10188 12.1872 3.21468 12.1872 4.375C12.1872 5.53532 11.7286 6.64812 10.9123 7.46859C10.0961 8.28906 8.98899 8.75 7.83462 8.75C6.68024 8.75 5.57315 8.28906 4.75689 7.46859C3.94062 6.64812 3.48205 5.53532 3.48205 4.375C3.48205 3.21468 3.94062 2.10188 4.75689 1.28141C5.57315 0.460936 6.68024 0 7.83462 0ZM27.8564 0C29.0108 0 30.1179 0.460936 30.9341 1.28141C31.7504 2.10188 32.209 3.21468 32.209 4.375C32.209 5.53532 31.7504 6.64812 30.9341 7.46859C30.1179 8.28906 29.0108 8.75 27.8564 8.75C26.702 8.75 25.5949 8.28906 24.7787 7.46859C23.9624 6.64812 23.5038 5.53532 23.5038 4.375C23.5038 3.21468 23.9624 2.10188 24.7787 1.28141C25.5949 0.460936 26.702 0 27.8564 0ZM0 16.3352C0 13.1141 2.60066 10.5 5.80523 10.5H8.12841C8.99349 10.5 9.81503 10.6914 10.555 11.0305C10.4842 11.4242 10.4516 11.8344 10.4516 12.25C10.4516 14.3391 11.3656 16.2148 12.8074 17.5C12.7965 17.5 12.7857 17.5 12.7693 17.5H1.15887C0.522308 17.5 0 16.975 0 16.3352ZM22.0512 17.5C22.0403 17.5 22.0294 17.5 22.0131 17.5C23.4603 16.2148 24.3689 14.3391 24.3689 12.25C24.3689 11.8344 24.3308 11.4297 24.2655 11.0305C25.0055 10.6859 25.827 10.5 26.6921 10.5H29.0153C32.2199 10.5 34.8205 13.1141 34.8205 16.3352C34.8205 16.9805 34.2982 17.5 33.6616 17.5H22.0512ZM12.1872 12.25C12.1872 10.8576 12.7375 9.52226 13.717 8.53769C14.6965 7.55312 16.025 7 17.4103 7C18.7955 7 20.124 7.55312 21.1035 8.53769C22.083 9.52226 22.6333 10.8576 22.6333 12.25C22.6333 13.6424 22.083 14.9777 21.1035 15.9623C20.124 16.9469 18.7955 17.5 17.4103 17.5C16.025 17.5 14.6965 16.9469 13.717 15.9623C12.7375 14.9777 12.1872 13.6424 12.1872 12.25ZM6.9641 26.5398C6.9641 22.5148 10.2122 19.25 14.2166 19.25H20.604C24.6083 19.25 27.8564 22.5148 27.8564 26.5398C27.8564 27.3438 27.209 28 26.4037 28H8.41677C7.61699 28 6.9641 27.3492 6.9641 26.5398Z" fill="white"/>
</svg>
