<svg width="25" height="28" viewBox="0 0 25 28" fill="none" xmlns="http://www.w3.org/2000/svg">
<path d="M8.75 6.125C8.75 4.19453 10.3195 2.625 12.25 2.625C14.1805 2.625 15.75 4.19453 15.75 6.125V8.75H8.75V6.125ZM6.125 8.75H2.625C1.17578 8.75 0 9.92578 0 11.375V22.75C0 25.6484 2.35156 28 5.25 28H19.25C22.1484 28 24.5 25.6484 24.5 22.75V11.375C24.5 9.92578 23.3242 8.75 21.875 8.75H18.375V6.125C18.375 2.73984 15.6352 0 12.25 0C8.86484 0 6.125 2.73984 6.125 6.125V8.75ZM7.4375 11.375C7.7856 11.375 8.11944 11.5133 8.36558 11.7594C8.61172 12.0056 8.75 12.3394 8.75 12.6875C8.75 13.0356 8.61172 13.3694 8.36558 13.6156C8.11944 13.8617 7.7856 14 7.4375 14C7.0894 14 6.75556 13.8617 6.50942 13.6156C6.26328 13.3694 6.125 13.0356 6.125 12.6875C6.125 12.3394 6.26328 12.0056 6.50942 11.7594C6.75556 11.5133 7.0894 11.375 7.4375 11.375ZM15.75 12.6875C15.75 12.3394 15.8883 12.0056 16.1344 11.7594C16.3806 11.5133 16.7144 11.375 17.0625 11.375C17.4106 11.375 17.7444 11.5133 17.9906 11.7594C18.2367 12.0056 18.375 12.3394 18.375 12.6875C18.375 13.0356 18.2367 13.3694 17.9906 13.6156C17.7444 13.8617 17.4106 14 17.0625 14C16.7144 14 16.3806 13.8617 16.1344 13.6156C15.8883 13.3694 15.75 13.0356 15.75 12.6875Z" fill="white"/>
</svg>
