<svg width="25" height="28" viewBox="0 0 25 28" fill="none" xmlns="http://www.w3.org/2000/svg">
<path d="M12.249 0C11.281 0 10.499 0.782031 10.499 1.75V2.8C6.50677 3.60938 3.49895 7.14219 3.49895 11.375V12.4031C3.49895 14.9734 2.55286 17.4562 0.846609 19.3813L0.441922 19.8352C-0.017453 20.3492 -0.126828 21.0875 0.152078 21.7164C0.430984 22.3453 1.05989 22.75 1.74895 22.75H22.749C23.438 22.75 24.0615 22.3453 24.3458 21.7164C24.6302 21.0875 24.5154 20.3492 24.056 19.8352L23.6513 19.3813C21.945 17.4562 20.999 14.9789 20.999 12.4031V11.375C20.999 7.14219 17.9911 3.60938 13.999 2.8V1.75C13.999 0.782031 13.2169 0 12.249 0ZM14.7263 26.9773C15.3825 26.3211 15.749 25.4297 15.749 24.5H12.249H8.74895C8.74895 25.4297 9.11536 26.3211 9.77161 26.9773C10.4279 27.6336 11.3193 28 12.249 28C13.1786 28 14.07 27.6336 14.7263 26.9773Z" fill="#0E21A0"/>
</svg>
