<svg width="28" height="28" viewBox="0 0 28 28" fill="none" xmlns="http://www.w3.org/2000/svg">
<path d="M10.3478 0C9.56138 0 8.89044 0.513894 8.63587 1.21739H1.82609C0.819304 1.21739 0 2.0367 0 3.04348V24.3478C0 25.3546 0.819304 26.1739 1.82609 26.1739H11.5652V12.1739C11.5652 10.4957 12.9305 9.13043 14.6087 9.13043H20.6957V3.04348C20.6957 2.0367 19.8763 1.21739 18.8696 1.21739H12.0598C11.8052 0.513894 11.1343 0 10.3478 0ZM10.3478 1.21739C10.6912 1.21739 10.9565 1.4827 10.9565 1.82609C10.9565 2.16947 10.6912 2.43478 10.3478 2.43478C10.0044 2.43478 9.73913 2.16947 9.73913 1.82609C9.73913 1.4827 10.0044 1.21739 10.3478 1.21739ZM5.47826 2.43478H8.63587C8.89044 3.13828 9.56138 3.65217 10.3478 3.65217C11.1343 3.65217 11.8052 3.13828 12.0598 2.43478H15.2174V4.26087C15.2174 4.93348 14.6726 5.47826 14 5.47826H6.69565C6.02304 5.47826 5.47826 4.93348 5.47826 4.26087V3.65217V2.43478ZM5.47826 8.52174H6.69565V12.1739H7.91304V9.73913H9.13043V12.1739H10.3478V13.3913H1.82609V12.1739H3.04348V10.3478H4.26087V12.1739H5.47826V8.52174ZM14.6087 10.3478C13.6019 10.3478 12.7826 11.1671 12.7826 12.1739V26.1739C12.7826 27.1807 13.6019 28 14.6087 28H25.5652C26.572 28 27.3913 27.1807 27.3913 26.1739V12.1739C27.3913 11.1671 26.572 10.3478 25.5652 10.3478H14.6087ZM15.8261 12.7826H24.3478C24.6844 12.7826 24.9565 13.0553 24.9565 13.3913V15.8261C24.9565 16.1627 24.6844 16.4348 24.3478 16.4348H15.8261C15.4895 16.4348 15.2174 16.1627 15.2174 15.8261V13.3913C15.2174 13.0553 15.4895 12.7826 15.8261 12.7826ZM6.08696 15.8261C8.10113 15.8261 9.73913 17.4641 9.73913 19.4783C9.73913 21.4924 8.10113 23.1304 6.08696 23.1304C4.07278 23.1304 2.43478 21.4924 2.43478 19.4783C2.43478 17.4641 4.07278 15.8261 6.08696 15.8261ZM6.08696 17.0435C4.74417 17.0435 3.65217 18.1355 3.65217 19.4783C3.65217 20.821 4.74417 21.913 6.08696 21.913C7.42974 21.913 8.52174 20.821 8.52174 19.4783H6.08696V17.0435ZM15.8261 17.6522H17.0435C17.3795 17.6522 17.6522 17.9249 17.6522 18.2609V18.8696C17.6522 19.2056 17.3795 19.4783 17.0435 19.4783H15.8261C15.4901 19.4783 15.2174 19.2056 15.2174 18.8696V18.2609C15.2174 17.9249 15.4901 17.6522 15.8261 17.6522ZM19.4783 17.6522H20.6957C21.0317 17.6522 21.3043 17.9249 21.3043 18.2609V18.8696C21.3043 19.2056 21.0317 19.4783 20.6957 19.4783H19.4783C19.1423 19.4783 18.8696 19.2056 18.8696 18.8696V18.2609C18.8696 17.9249 19.1423 17.6522 19.4783 17.6522ZM23.1304 17.6522H24.3478C24.6838 17.6522 24.9565 17.9249 24.9565 18.2609V18.8696C24.9565 19.2056 24.6838 19.4783 24.3478 19.4783H23.1304C22.7944 19.4783 22.5217 19.2056 22.5217 18.8696V18.2609C22.5217 17.9249 22.7944 17.6522 23.1304 17.6522ZM15.8261 20.6957H17.0435C17.3795 20.6957 17.6522 20.9683 17.6522 21.3043V21.913C17.6522 22.249 17.3795 22.5217 17.0435 22.5217H15.8261C15.4901 22.5217 15.2174 22.249 15.2174 21.913V21.3043C15.2174 20.9683 15.4901 20.6957 15.8261 20.6957ZM19.4783 20.6957H20.6957C21.0317 20.6957 21.3043 20.9683 21.3043 21.3043V21.913C21.3043 22.249 21.0317 22.5217 20.6957 22.5217H19.4783C19.1423 22.5217 18.8696 22.249 18.8696 21.913V21.3043C18.8696 20.9683 19.1423 20.6957 19.4783 20.6957ZM23.1304 20.6957H24.3478C24.6838 20.6957 24.9565 20.9683 24.9565 21.3043V21.913C24.9565 22.249 24.6838 22.5217 24.3478 22.5217H23.1304C22.7944 22.5217 22.5217 22.249 22.5217 21.913V21.3043C22.5217 20.9683 22.7944 20.6957 23.1304 20.6957ZM15.8261 23.7391H17.0435C17.3795 23.7391 17.6522 24.0118 17.6522 24.3478V24.9565C17.6522 25.2925 17.3795 25.5652 17.0435 25.5652H15.8261C15.4901 25.5652 15.2174 25.2925 15.2174 24.9565V24.3478C15.2174 24.0118 15.4901 23.7391 15.8261 23.7391ZM19.4783 23.7391H20.6957C21.0317 23.7391 21.3043 24.0118 21.3043 24.3478V24.9565C21.3043 25.2925 21.0317 25.5652 20.6957 25.5652H19.4783C19.1423 25.5652 18.8696 25.2925 18.8696 24.9565V24.3478C18.8696 24.0118 19.1423 23.7391 19.4783 23.7391ZM23.1304 23.7391H24.3478C24.6838 23.7391 24.9565 24.0118 24.9565 24.3478V24.9565C24.9565 25.2925 24.6838 25.5652 24.3478 25.5652H23.1304C22.7944 25.5652 22.5217 25.2925 22.5217 24.9565V24.3478C22.5217 24.0118 22.7944 23.7391 23.1304 23.7391Z" fill="white"/>
</svg>
